{"title":"The Kings Speech-AC3-XviD-BRRip 2010 TBS","uid":6265462,"size":1478528753,"categoryP":"video","categoryS":"movies","magnet":"?xt=urn:btih:d7e94b6820bd06fa16ba945fa93a80e84afa1628&amp;dn=The+Kings+Speech-AC3-XviD-BRRip+2010+TBS&amp;tr=udp%3A%2F%2Ftracker.openbittorrent.com%3A80&amp;tr=udp%3A%2F%2Fopen.demonii.com%3A1337&amp;tr=udp%3A%2F%2Ftracker.coppersurfer.tk%3A6969&amp;tr=udp%3A%2F%2Fexodus.desync.com%3A6969","seeders":0,"leechers":1,"uploader":"FatFreddy30","files":-1,"time":1300889146,"description":"The story of King George VI of Britain, his impromptu ascension to the throne and the speech therapist who helped the unsure monarch become worthy of it.\n &lt;a href=&quot;\nhttp://www.imdb.com/title/tt1504320/&quot; rel=&quot;nofollow&quot; target=&quot;_NEW&quot;&gt;\nhttp://www.imdb.com/title/tt1504320/&lt;/a&gt;\n\nSubtitles: Dutch, English.\n\n\nNadat zijn broer aftreedt wordt George nogal ongewild de nieuwe Koning van Engeland en gaat door het leven als George VI. Helaas stottert hij, wat niet echt Koninklijk overkomt. Hiervoor schakelt hij de hulp in van de onorthodoxe spraaktherapeut Lionel Logue wat resulteert in een reeks ongewone technieken en een bijzondere vriendschap...\n &lt;a href=&quot;\nhttp://www.moviemeter.nl/film/66831&quot; rel=&quot;nofollow&quot; target=&quot;_NEW&quot;&gt;\nhttp://www.moviemeter.nl/film/66831&lt;/a&gt;\n\nOndertitels: Engels, Nederlands.\n\nGeneral\nComplete name                    : The Kings Speech-AC3-XviD-BRRip 2010.avi\nFormat                           : AVI\nFormat/Info                      : Audio Video Interleave\nFile size                        : 1.38 GiB\nDuration                         : 1h 58mn\nOverall bit rate                 : 1 662 Kbps\nWriting application              : VirtualDubMod 1.5.4.1 (build 2178/release)\nWriting library                  : VirtualDubMod build 2178/release\nSource                           : The.Kings.Speech.2010.720p.BluRay.X264-AMIABLE\n\nVideo\nID                               : 0\nFormat                           : MPEG-4 Visual\nFormat profile                   : Simple@L3\nFormat settings, BVOP            : No\nFormat settings, QPel            : No\nFormat settings, GMC             : No warppoints\nFormat settings, Matrix          : Default (H.263)\nCodec ID                         : XVID\nCodec ID/Hint                    : XviD\nDuration                         : 1h 58mn\nBit rate                         : 1 205 Kbps\nWidth                            : 720 pixels\nHeight                           : 400 pixels\nDisplay aspect ratio             : 16:9\nFrame rate                       : 23.976 fps\nResolution                       : 8 bits\nColorimetry                      : 4:2:0\nScan type                        : Progressive\nBits/(Pixel*Frame)               : 0.174\nStream size                      : 1 021 MiB (72%)\nWriting library                  : XviD 1.1.2 (UTC 2006-11-01)\n\nAudio\nID                               : 1\nFormat                           : AC-3\nFormat/Info                      : Audio Coding 3\nCodec ID                         : 2000\nDuration                         : 1h 58mn\nBit rate mode                    : Constant\nBit rate                         : 448 Kbps\nChannel(s)                       : 6 channels\nChannel positions                : Front: L C R, Surround: L R, LFE\nSampling rate                    : 48.0 KHz\nStream size                      : 380 MiB (27%)\nAlignment                        : Split accross interleaves\nInterleave, duration             : 42 ms (1.00 video frame)\nInterleave, preload duration     : 500 ms\n\nEnjoy...\n\nTBS.","torrent":{"xt":"urn:btih:d7e94b6820bd06fa16ba945fa93a80e84afa1628","amp;dn":"The+Kings+Speech-AC3-XviD-BRRip+2010+TBS","amp;tr":["udp%3A%2F%2Ftracker.openbittorrent.com%3A80","udp%3A%2F%2Fopen.demonii.com%3A1337","udp%3A%2F%2Ftracker.coppersurfer.tk%3A6969","udp%3A%2F%2Fexodus.desync.com%3A6969"],"infoHash":"d7e94b6820bd06fa16ba945fa93a80e84afa1628","infoHashBuffer":{"type":"Buffer","data":[215,233,75,104,32,189,6,250,22,186,148,95,169,58,128,232,74,250,22,40]},"announce":[],"urlList":[]}}